<?xml version="1.0" encoding="UTF-8" standalone="no"?>
<!DOCTYPE svg PUBLIC "-//W3C//DTD SVG 1.1//EN" "http://www.w3.org/Graphics/SVG/1.1/DTD/svg11.dtd">
<svg width="100%" height="100%" viewBox="0 0 24 24" version="1.1" xmlns="http://www.w3.org/2000/svg" xmlns:xlink="http://www.w3.org/1999/xlink" xml:space="preserve" xmlns:serif="http://www.serif.com/" style="fill-rule:evenodd;clip-rule:evenodd;stroke-linejoin:round;stroke-miterlimit:2;"><rect x="0" y="0" width="24" height="24" fill="#000000"/>
    <path d="M1,10C1,7.239 3.239,5 6,5L13,5C15.761,5 18,7.239 18,10C18,12.761 15.761,15 13,15L6,15C3.239,15 1,12.761 1,10ZM6,7C4.343,7 3,8.343 3,10C3,11.657 4.343,13 6,13L13,13C14.657,13 16,11.657 16,10C16,8.343 14.657,7 13,7L6,7Z" style="fill:url(#_Radial1);"/>
    <path d="M1,10C1,7.239 3.239,5 6,5L13,5C15.761,5 18,7.239 18,10C18,12.761 15.761,15 13,15L6,15C3.239,15 1,12.761 1,10ZM6,7C4.343,7 3,8.343 3,10C3,11.657 4.343,13 6,13L13,13C14.657,13 16,11.657 16,10C16,8.343 14.657,7 13,7L6,7Z" style="fill:url(#_Radial2);"/>
    <path d="M1,10C1,7.239 3.239,5 6,5L13,5C15.761,5 18,7.239 18,10C18,12.761 15.761,15 13,15L6,15C3.239,15 1,12.761 1,10ZM6,7C4.343,7 3,8.343 3,10C3,11.657 4.343,13 6,13L13,13C14.657,13 16,11.657 16,10C16,8.343 14.657,7 13,7L6,7Z" style="fill:url(#_Linear3);"/>
    <path d="M15.829,9L11,9C8.239,9 6,11.239 6,14C6,16.761 8.239,19 11,19L18,19C20.761,19 23,16.761 23,14C23,11.239 20.761,9 18,9L17.9,9C17.966,9.323 18,9.658 18,10C18,10.342 17.966,10.677 17.9,11L18,11C19.657,11 21,12.343 21,14C21,15.657 19.657,17 18,17L11,17C9.343,17 8,15.657 8,14C8,12.343 9.343,11 11,11L15.829,11C15.94,10.687 16,10.351 16,10C16,9.649 15.94,9.313 15.829,9Z" style="fill:url(#_Linear4);fill-rule:nonzero;"/>
    <path d="M15.829,9L11,9C8.239,9 6,11.239 6,14C6,16.761 8.239,19 11,19L18,19C20.761,19 23,16.761 23,14C23,11.239 20.761,9 18,9L17.9,9C17.966,9.323 18,9.658 18,10C18,10.342 17.966,10.677 17.9,11L18,11C19.657,11 21,12.343 21,14C21,15.657 19.657,17 18,17L11,17C9.343,17 8,15.657 8,14C8,12.343 9.343,11 11,11L15.829,11C15.94,10.687 16,10.351 16,10C16,9.649 15.94,9.313 15.829,9Z" style="fill:url(#_Radial5);fill-rule:nonzero;"/>
    <path d="M15.829,9L11,9C8.239,9 6,11.239 6,14C6,16.761 8.239,19 11,19L18,19C20.761,19 23,16.761 23,14C23,11.239 20.761,9 18,9L17.9,9C17.966,9.323 18,9.658 18,10C18,10.342 17.966,10.677 17.9,11L18,11C19.657,11 21,12.343 21,14C21,15.657 19.657,17 18,17L11,17C9.343,17 8,15.657 8,14C8,12.343 9.343,11 11,11L15.829,11C15.94,10.687 16,10.351 16,10C16,9.649 15.94,9.313 15.829,9Z" style="fill:url(#_Linear6);fill-rule:nonzero;"/>
    <g transform="matrix(0.25,0,0,0.25,18,18)">
        <g transform="matrix(1,0,0,1,-24,-24)">
            <path d="M4,24C4,12.954 12.954,4 24,4C35.046,4 44,12.954 44,24C44,35.046 35.046,44 24,44C20.55,44 17.302,43.126 14.466,41.586L6.231,43.928C4.912,44.303 3.694,43.084 4.069,41.766L6.411,33.528C4.873,30.695 4,27.448 4,24Z" style="fill:url(#_Linear7);fill-rule:nonzero;"/>
            <path d="M16,20.25C16,20.94 16.56,21.5 17.25,21.5L30.75,21.5C31.44,21.5 32,20.94 32,20.25C32,19.56 31.44,19 30.75,19L17.25,19C16.56,19 16,19.56 16,20.25ZM17.25,26.5C16.56,26.5 16,27.06 16,27.75C16,28.44 16.56,29 17.25,29L26.75,29C27.44,29 28,28.44 28,27.75C28,27.06 27.44,26.5 26.75,26.5L17.25,26.5Z" style="fill:url(#_Linear8);fill-rule:nonzero;"/>
        </g>
    </g>
    <defs>
        <radialGradient id="_Radial1" cx="0" cy="0" r="1" gradientUnits="userSpaceOnUse" gradientTransform="matrix(13.90911,10.769234,-9.635309,12.444577,1.77273,5)"><stop offset="0" style="stop-color:rgb(15,175,255);stop-opacity:1"/><stop offset="0.43" style="stop-color:rgb(54,122,242);stop-opacity:1"/><stop offset="0.94" style="stop-color:rgb(87,80,226);stop-opacity:1"/><stop offset="1" style="stop-color:rgb(111,71,223);stop-opacity:1"/></radialGradient>
        <radialGradient id="_Radial2" cx="0" cy="0" r="1" gradientUnits="userSpaceOnUse" gradientTransform="matrix(-7,-0,0,-7.77785,10.5,14.5)"><stop offset="0" style="stop-color:rgb(38,29,130);stop-opacity:0"/><stop offset="0.24" style="stop-color:rgb(38,29,130);stop-opacity:0"/><stop offset="0.42" style="stop-color:rgb(38,29,130);stop-opacity:1"/><stop offset="0.57" style="stop-color:rgb(38,29,130);stop-opacity:1"/><stop offset="0.75" style="stop-color:rgb(38,29,130);stop-opacity:0"/><stop offset="1" style="stop-color:rgb(38,29,130);stop-opacity:0"/></radialGradient>
        <linearGradient id="_Linear3" x1="0" y1="0" x2="1" y2="0" gradientUnits="userSpaceOnUse" gradientTransform="matrix(-8.61776,-9.83287,9.83287,-8.61776,17,15.5)"><stop offset="0" style="stop-color:rgb(81,87,228);stop-opacity:0"/><stop offset="0.07" style="stop-color:rgb(81,87,228);stop-opacity:1"/><stop offset="0.32" style="stop-color:rgb(81,87,228);stop-opacity:1"/><stop offset="0.6" style="stop-color:rgb(81,87,228);stop-opacity:0"/><stop offset="1" style="stop-color:rgb(81,87,228);stop-opacity:0"/></linearGradient>
        <linearGradient id="_Linear4" x1="0" y1="0" x2="1" y2="0" gradientUnits="userSpaceOnUse" gradientTransform="matrix(10.581686,24.5897,-24.5897,10.581686,0.535714,4.1875)"><stop offset="0" style="stop-color:rgb(54,223,241);stop-opacity:1"/><stop offset="1" style="stop-color:rgb(39,100,231);stop-opacity:1"/></linearGradient>
        <radialGradient id="_Radial5" cx="0" cy="0" r="1" gradientUnits="userSpaceOnUse" gradientTransform="matrix(7,0,0,7.77785,13.5,9.5)"><stop offset="0" style="stop-color:rgb(39,100,231);stop-opacity:0"/><stop offset="0.25" style="stop-color:rgb(39,100,231);stop-opacity:0"/><stop offset="0.4" style="stop-color:rgb(39,100,231);stop-opacity:1"/><stop offset="0.58" style="stop-color:rgb(39,100,231);stop-opacity:1"/><stop offset="0.75" style="stop-color:rgb(39,100,231);stop-opacity:0"/><stop offset="1" style="stop-color:rgb(39,100,231);stop-opacity:0"/></radialGradient>
        <linearGradient id="_Linear6" x1="0" y1="0" x2="1" y2="0" gradientUnits="userSpaceOnUse" gradientTransform="matrix(8.2705,7.1029,-7.1029,8.2705,8.5,5)"><stop offset="0" style="stop-color:rgb(49,179,238);stop-opacity:0.24"/><stop offset="0.21" style="stop-color:rgb(49,179,238);stop-opacity:1"/><stop offset="0.57" style="stop-color:rgb(49,179,238);stop-opacity:1"/><stop offset="0.76" style="stop-color:rgb(49,179,238);stop-opacity:0"/><stop offset="1" style="stop-color:rgb(49,179,238);stop-opacity:0"/></linearGradient>
        <linearGradient id="_Linear7" x1="0" y1="0" x2="1" y2="0" gradientUnits="userSpaceOnUse" gradientTransform="matrix(34.91963,59.5365,-59.5365,34.91963,5.42857,11.5)"><stop offset="0" style="stop-color:rgb(15,175,255);stop-opacity:1"/><stop offset="1" style="stop-color:rgb(204,35,209);stop-opacity:1"/></linearGradient>
        <linearGradient id="_Linear8" x1="0" y1="0" x2="1" y2="0" gradientUnits="userSpaceOnUse" gradientTransform="matrix(1.0543,10.8735,-10.8735,1.0543,17.3995,19.1756)"><stop offset="0" style="stop-color:rgb(253,253,253);stop-opacity:1"/><stop offset="1" style="stop-color:rgb(204,234,255);stop-opacity:1"/></linearGradient>
    </defs>
</svg>
