<?xml version="1.0" encoding="UTF-8"?>
<svg id="Layer_1" data-name="Layer 1" xmlns="http://www.w3.org/2000/svg" viewBox="0 0 186.46 259.39">
  <defs>
    <style>
      .cls-1 {
        fill: #0b9496;
      }

      .cls-1, .cls-2, .cls-3, .cls-4 {
        stroke-width: 0px;
      }

      .cls-2 {
        fill: #05c79d;
      }

      .cls-3 {
        fill: #0af5a7;
      }

      .cls-4 {
        fill: #24047b;
      }
    </style>
  </defs>
  <path class="cls-4" d="M64.05,175.62c-19.2-10.78-38.33-21.68-57.64-32.27C2.13,141.01.01,138.17.04,133.25c.09-17.42-.18-34.83.08-52.25.04-2.38,1.67-5.77,3.61-6.93C37.1,54.07,70.63,34.34,104.95,14.07v65.02c-16.57,8.84-33.62,17.93-52.26,27.87,18.48,9.73,35.78,18.83,53.07,27.94,4.56,2.56,9.13,5.12,13.7,7.68-18.47,11.01-36.94,22.03-55.41,33.04Z"/>
  <path class="cls-1" d="M64.05,175.62c18.47-11.01,36.94-22.03,55.41-33.04,16.26-9.04,32.52-18.08,48.77-27.11,0,0,.04.1.04.1.12.29.24.58.35.87v64.29c-45.4,25.94-91.16,52.09-137.64,78.65v-62.37c10.97-7.1,22.01-14.24,33.06-21.39Z"/>
  <path class="cls-2" d="M168.23,115.47c-16.26,9.04-32.52,18.08-48.77,27.11-4.57-2.56-9.13-5.12-13.7-7.68,0-18.19,0-36.38,0-56.63,21.87,13.02,42.17,25.11,62.47,37.2Z"/>
  <path class="cls-3" d="M119.57,0c17.88,11.09,34.95,21.67,53.24,33.02-18.15,11.26-35.25,21.87-53.24,33.03V0Z"/>
  <path class="cls-3" d="M186.46,91.94c-14.44-8.9-28.25-17.4-43.02-26.5,14.73-8.95,28.45-17.28,43.02-26.14v52.64Z"/>
  <path class="cls-2" d="M168.63,116.45c-.12-.29-.24-.58-.35-.87.17.17.36.32.49.52.04.06-.08.23-.13.35Z"/>
</svg>