<?xml version="1.0" encoding="UTF-8"?>
<svg width="260px" height="260px" viewBox="0 0 445.77 432.81" xmlns="http://www.w3.org/2000/svg" xmlns:xlink="http://www.w3.org/1999/xlink">
  <defs>
    <style>
      .cls-1 {fill:#0b9496;}
      .cls-1,.cls-2,.cls-3,.cls-4,.cls-5,.cls-6,.cls-7,.cls-8,.cls-9,.cls-10,.cls-11,.cls-12,.cls-13{stroke-width:0px;}
      .cls-2 {fill:url(#linear-gradient);}
      .cls-3 {fill:url(#radial-gradient-8);}
      .cls-4 {fill:#05c79d;}
      .cls-5 {fill:#0af5a7;}
      .cls-6 {fill:url(#radial-gradient-2);}
      .cls-7 {fill:url(#radial-gradient-7);}
      .cls-8 {fill:url(#radial-gradient-5);}
      .cls-9 {fill:url(#radial-gradient);}
      .cls-10 {fill:#24047b;}
      .cls-11 {fill:url(#radial-gradient-6);}
      .cls-12 {fill:url(#radial-gradient-3);}
      .cls-13 {fill:url(#radial-gradient-4);}
    </style>
    <radialGradient id="radial-gradient" cx="-96.36" cy="466.28" fx="-96.36" fy="466.28" r="1" gradientTransform="translate(-74743.7 83004.25) rotate(51.16) scale(143.54 -236.43) skewX(-3.32)" gradientUnits="userSpaceOnUse">
      <stop offset="0" stop-color="#4894fe"/>
      <stop offset=".7" stop-color="#0934b3"/>
    </radialGradient>
    <radialGradient id="radial-gradient-2" cx="-96.41" cy="465.81" fx="-96.41" fy="465.81" r="1" gradientTransform="translate(-195337.27 -96071.33) rotate(129.91) scale(616.85 -454.49) skewX(1.5)" gradientUnits="userSpaceOnUse">
      <stop offset=".17" stop-color="#23c0fe"/>
      <stop offset=".53" stop-color="#1c91ff"/>
    </radialGradient>
    <radialGradient id="radial-gradient-3" cx="-96.23" cy="465.41" fx="-96.23" fy="465.41" r="1" gradientTransform="translate(75192.29 -111692.97) rotate(-138.97) scale(124.7 -287.07) skewX(-4.65)" gradientUnits="userSpaceOnUse">
      <stop offset="0" stop-color="#fff" stop-opacity=".4"/>
      <stop offset=".66" stop-color="#adc0ff" stop-opacity="0"/>
    </radialGradient>
    <radialGradient id="radial-gradient-4" cx="-96.23" cy="465.28" fx="-96.23" fy="465.28" r="1" gradientTransform="translate(53256.54 -86105.88) rotate(-138.75) scale(140.58 -214.64) skewX(-3.09)" gradientUnits="userSpaceOnUse">
      <stop offset="0" stop-color="#033acc"/>
      <stop offset="1" stop-color="#368eff" stop-opacity="0"/>
    </radialGradient>
    <radialGradient id="radial-gradient-5" cx="-96.39" cy="466.11" fx="-96.39" fy="466.11" r="1" gradientTransform="translate(-128528.51 90836.8) rotate(67.31) scale(313.15 -329.77) skewX(-1.58)" gradientUnits="userSpaceOnUse">
      <stop offset=".59" stop-color="#3464e3" stop-opacity="0"/>
      <stop offset="1" stop-color="#033acc" stop-opacity=".6"/>
    </radialGradient>
    <radialGradient id="radial-gradient-6" cx="-96.47" cy="465.8" fx="-96.47" fy="465.8" r="1" gradientTransform="translate(-260689.72 -207474.31) rotate(133.97) scale(455.09 -712.52) skewX(3.21)" gradientUnits="userSpaceOnUse">
      <stop offset="0" stop-color="#4bfde8" stop-opacity=".9"/>
      <stop offset=".54" stop-color="#4bfde8" stop-opacity="0"/>
    </radialGradient>
    <linearGradient id="linear-gradient" x1="-70.83" y1="444.4" x2="-70.83" y2="458.36" gradientTransform="translate(1347.17 6972.93) scale(15 -15)" gradientUnits="userSpaceOnUse">
      <stop offset="0" stop-color="#0086ff"/>
      <stop offset=".49" stop-color="#0bf"/>
    </linearGradient>
    <radialGradient id="radial-gradient-7" cx="-96.05" cy="466.08" fx="-96.05" fy="466.08" r="1" gradientTransform="translate(-47626.76 179746.7) rotate(22.35) scale(203.51 -395.45) skewX(-2.73)" gradientUnits="userSpaceOnUse">
      <stop offset="0" stop-color="#fff" stop-opacity=".4"/>
      <stop offset=".79" stop-color="#fff" stop-opacity="0"/>
    </radialGradient>
    <radialGradient id="radial-gradient-8" cx="-96.62" cy="465.75" fx="-96.62" fy="465.75" r="1" gradientTransform="translate(-104576.54 -83628.4) rotate(138.23) scale(281.97 -284.25) skewX(2.05)" gradientUnits="userSpaceOnUse">
      <stop offset="0" stop-color="#4bfde8" stop-opacity=".9"/>
      <stop offset=".58" stop-color="#4bfde8" stop-opacity="0"/>
    </radialGradient>
  </defs>
  <g id="surface1">
    <path class="cls-9" d="M123.19,46.98c-68.15,0-119.09,57.82-122.93,122.24,2.38,13.88,10.18,41.29,22.4,39.88,15.27-1.76,53.74,0,86.56-61.57,23.97-44.98,73.28-100.55,13.97-100.55Z"/>
    <path class="cls-6" d="M107.43,71.02c-22.91,37.59-53.75,91.46-64.15,108.41-12.37,20.15-45.13,11.59-42.42-17.29-.27,2.34-.47,4.71-.62,7.09-4.48,75.14,53,137.55,124.53,137.55,78.83,0,266.84-101.81,247.81-203.81C352.53,43.01,296.17,0,232.29,0s-104.82,38.14-124.85,71.02Z"/>
    <path class="cls-12" d="M107.43,71.02c-22.91,37.59-53.75,91.46-64.15,108.41-12.37,20.15-45.13,11.59-42.42-17.29-.27,2.34-.47,4.71-.62,7.09-4.48,75.14,53,137.55,124.53,137.55,78.83,0,266.84-101.81,247.81-203.81C352.53,43.01,296.17,0,232.29,0s-104.82,38.14-124.85,71.02Z"/>
    <path class="cls-13" d="M107.43,71.02c-22.91,37.59-53.75,91.46-64.15,108.41-12.37,20.15-45.13,11.59-42.42-17.29-.27,2.34-.47,4.71-.62,7.09-4.48,75.14,53,137.55,124.53,137.55,78.83,0,266.84-101.81,247.81-203.81C352.53,43.01,296.17,0,232.29,0s-104.82,38.14-124.85,71.02Z"/>
    <path class="cls-8" d="M107.43,71.02c-22.91,37.59-53.75,91.46-64.15,108.41-12.37,20.15-45.13,11.59-42.42-17.29-.27,2.34-.47,4.71-.62,7.09-4.48,75.14,53,137.55,124.53,137.55,78.83,0,266.84-101.81,247.81-203.81C352.53,43.01,296.17,0,232.29,0s-104.82,38.14-124.85,71.02Z"/>
    <path class="cls-11" d="M107.43,71.02c-22.91,37.59-53.75,91.46-64.15,108.41-12.37,20.15-45.13,11.59-42.42-17.29-.27,2.34-.47,4.71-.62,7.09-4.48,75.14,53,137.55,124.53,137.55,78.83,0,266.84-101.81,247.81-203.81C352.53,43.01,296.17,0,232.29,0s-104.82,38.14-124.85,71.02Z"/>
    <path class="cls-2" d="M123.62,306.81s188.23.38,220.16.38c57.94,0,102-49.03,102-106.24s-44.94-105.95-102-105.95-89.92,44.24-114.6,92.54c-28.92,56.59-65.81,118.59-105.56,119.27Z"/>
    <path class="cls-7" d="M123.62,306.81s188.23.38,220.16.38c57.94,0,102-49.03,102-106.24s-44.94-105.95-102-105.95-89.92,44.24-114.6,92.54c-28.92,56.59-65.81,118.59-105.56,119.27Z"/>
    <path class="cls-3" d="M123.62,306.81s188.23.38,220.16.38c57.94,0,102-49.03,102-106.24s-44.94-105.95-102-105.95-89.92,44.24-114.6,92.54c-28.92,56.59-65.81,118.59-105.56,119.27Z"/>
  </g>
  <g>
    <g>
      <path class="cls-10" d="M131.18,393.28c-7.92-5.09-15.8-10.23-23.76-15.23-1.76-1.1-2.64-2.44-2.63-4.77.04-8.22-.07-16.44.03-24.66.02-1.12.69-2.72,1.49-3.27,13.76-9.44,27.58-18.75,41.73-28.31v30.68c-6.83,4.17-13.86,8.46-21.54,13.15,7.62,4.59,14.75,8.89,21.88,13.18,1.88,1.21,3.76,2.42,5.65,3.62-7.61,5.2-15.23,10.4-22.84,15.59h0Z"/>
      <path class="cls-1" d="M131.18,393.28c7.61-5.2,15.23-10.4,22.84-15.59,6.7-4.27,13.41-8.53,20.1-12.79l.02.05c.05.14.1.27.14.41v30.34c-18.72,12.24-37.58,24.58-56.74,37.11v-29.43c4.52-3.35,9.07-6.72,13.63-10.09h0Z"/>
      <path class="cls-4" d="M174.12,364.9c-6.7,4.27-13.41,8.53-20.1,12.79-1.88-1.21-3.76-2.42-5.65-3.62v-26.72c9.02,6.14,17.38,11.85,25.75,17.55Z"/>
      <path class="cls-5" d="M154.06,310.41c7.37,5.23,14.41,10.23,21.95,15.58-7.48,5.31-14.53,10.32-21.95,15.59v-31.17Z"/>
      <path class="cls-5" d="M181.64,353.8c-5.95-4.2-11.65-8.21-17.73-12.51,6.07-4.22,11.73-8.15,17.73-12.34v24.84Z"/>
      <path class="cls-4" d="M174.29,365.36c-.05-.14-.1-.27-.14-.41.07.08.15.15.2.25.02.03-.03.11-.05.17h0Z"/>
    </g>
    <g>
      <path class="cls-10" d="M211.24,393.25c-7.92-5.09-15.8-10.23-23.76-15.23-1.76-1.1-2.64-2.44-2.63-4.77.04-8.22-.07-16.44.03-24.66.02-1.12.69-2.72,1.49-3.27,13.76-9.44,27.58-18.75,41.73-28.31v30.68c-6.83,4.17-13.86,8.46-21.54,13.15,7.62,4.59,14.75,8.89,21.88,13.18,1.88,1.21,3.76,2.42,5.65,3.62-7.61,5.2-15.23,10.4-22.84,15.59h0Z"/>
      <path class="cls-1" d="M211.24,393.25c7.61-5.2,15.23-10.4,22.84-15.59,6.7-4.27,13.41-8.53,20.1-12.79l.02.05c.05.14.1.27.14.41v30.34c-18.72,12.24-37.58,24.58-56.74,37.11v-29.43c4.52-3.35,9.07-6.72,13.63-10.09h0Z"/>
      <path class="cls-4" d="M254.19,364.86c-6.7,4.27-13.41,8.53-20.1,12.79-1.88-1.21-3.76-2.42-5.65-3.62v-26.72c9.02,6.14,17.38,11.85,25.75,17.55Z"/>
      <path class="cls-5" d="M234.13,310.38c7.37,5.23,14.41,10.23,21.95,15.58-7.48,5.31-14.53,10.32-21.95,15.59v-31.17Z"/>
      <path class="cls-5" d="M261.71,353.76c-5.95-4.2-11.65-8.21-17.73-12.51,6.07-4.22,11.73-8.15,17.73-12.34v24.84Z"/>
      <path class="cls-4" d="M254.36,365.33c-.05-.14-.1-.27-.14-.41.07.08.15.15.2.25.02.03-.03.11-.05.17h0Z"/>
    </g>
    <g>
      <path class="cls-10" d="M291.31,393.25c-7.92-5.09-15.8-10.23-23.76-15.23-1.76-1.1-2.64-2.44-2.63-4.77.04-8.22-.07-16.44.03-24.66.02-1.12.69-2.72,1.49-3.27,13.76-9.44,27.58-18.75,41.73-28.31v30.68c-6.83,4.17-13.86,8.46-21.54,13.15,7.62,4.59,14.75,8.89,21.88,13.18,1.88,1.21,3.76,2.42,5.65,3.62-7.61,5.2-15.23,10.4-22.84,15.59h0Z"/>
      <path class="cls-1" d="M291.31,393.25c7.61-5.2,15.23-10.4,22.84-15.59,6.7-4.27,13.41-8.53,20.1-12.79l.02.05c.05.14.1.27.14.41v30.34c-18.72,12.24-37.58,24.58-56.74,37.11v-29.43c4.52-3.35,9.07-6.72,13.63-10.09h0Z"/>
      <path class="cls-4" d="M334.26,364.86c-6.7,4.27-13.41,8.53-20.1,12.79-1.88-1.21-3.76-2.42-5.65-3.62v-26.72c9.02,6.14,17.38,11.85,25.75,17.55Z"/>
      <path class="cls-5" d="M314.2,310.38c7.37,5.23,14.41,10.23,21.95,15.58-7.48,5.31-14.53,10.32-21.95,15.59v-31.17Z"/>
      <path class="cls-5" d="M341.77,353.76c-5.95-4.2-11.65-8.21-17.73-12.51,6.07-4.22,11.73-8.15,17.73-12.34v24.84Z"/>
      <path class="cls-4" d="M334.42,365.33c-.05-.14-.1-.27-.14-.41.07.08.15.15.2.25.02.03-.03.11-.05.17h0Z"/>
    </g>
  </g>
</svg>
