<?xml version="1.0" encoding="UTF-8"?>
<svg id="Layer_1" data-name="Layer 1" xmlns="http://www.w3.org/2000/svg" viewBox="0 0 127.8 121.11">
  <defs>
    <style>
      .cls-1 {
        fill: #0b9496;
      }

      .cls-1, .cls-2, .cls-3, .cls-4, .cls-5, .cls-6, .cls-7, .cls-8 {
        stroke-width: 0px;
      }

      .cls-2 {
        fill: #1490df;
      }

      .cls-3 {
        fill: #05c79d;
      }

      .cls-4 {
        fill: #0af5a7;
      }

      .cls-5 {
        fill: #0364b8;
      }

      .cls-6 {
        fill: #0078d4;
      }

      .cls-7 {
        fill: #28a8ea;
      }

      .cls-8 {
        fill: #24047b;
      }
    </style>
  </defs>
  <g>
    <path class="cls-6" d="M5.8,68.2l66.6-27.7-33.5-19.8s-3-1.7-7.7-2.3C13.9,18.8,0,32.9,0,50.3c0,6.9,2.2,13.3,5.9,18.5l-.1-.6Z"/>
    <path class="cls-2" d="M123.3,70.8c2.8-4.2,4.5-9.2,4.5-14.6,0-13.8-10.8-25-24.3-25.9,0-.1,0-.2-.1-.3-4.8-.5-9.2,1.4-9.2,1.4l-21.8,9.1,50.9,30.3Z"/>
    <path class="cls-5" d="M72.4,40.6l21.8-9.1s4.5-1.9,9.2-1.4C99.2,12.9,83.6,0,65.1,0c-14,0-26.3,7.3-33.4,18.3h-.5c4.8.6,7.7,2.3,7.7,2.3l33.5,20Z"/>
    <path class="cls-7" d="M72.5,40.6L5.9,68.2l.1.6c5.8,8.1,15.3,13.4,26,13.4,1,0,2-.1,3-.1h68.2c8.4-.4,15.8-4.8,20.2-11.3l-50.9-30.2Z"/>
  </g>
  <g>
    <g>
      <path class="cls-8" d="M34.99,108.84c-2.47-1.58-4.93-3.18-7.42-4.73-.55-.34-.82-.76-.82-1.48.01-2.55-.02-5.1.01-7.65,0-.35.21-.85.46-1.02,4.3-2.93,8.61-5.82,13.03-8.79v9.53c-2.13,1.3-4.33,2.63-6.73,4.08,2.38,1.43,4.61,2.76,6.83,4.09.59.38,1.18.75,1.76,1.13-2.38,1.61-4.75,3.23-7.13,4.84h0Z"/>
      <path class="cls-1" d="M34.99,108.84c2.38-1.61,4.75-3.23,7.13-4.84,2.09-1.32,4.19-2.65,6.28-3.97h0c.02.06.03.1.05.14v9.42c-5.84,3.8-11.73,7.63-17.72,11.52v-9.14c1.41-1.04,2.83-2.09,4.26-3.13h0Z"/>
      <path class="cls-3" d="M48.4,100.03c-2.09,1.32-4.19,2.65-6.28,3.97-.59-.38-1.18-.75-1.76-1.13v-8.3c2.82,1.91,5.43,3.68,8.04,5.45Z"/>
      <path class="cls-4" d="M42.14,83.11c2.3,1.62,4.5,3.17,6.85,4.84-2.34,1.65-4.54,3.2-6.85,4.84,0,0,0-9.68,0-9.68Z"/>
      <path class="cls-4" d="M50.75,96.58c-1.86-1.3-3.64-2.55-5.54-3.88,1.9-1.31,3.66-2.53,5.54-3.83v7.71Z"/>
      <path class="cls-3" d="M48.46,100.17s-.03-.08-.05-.13c.02.02.05.05.06.08,0,0-.01.03-.02.05h0Z"/>
    </g>
    <g>
      <path class="cls-8" d="M59.99,108.83c-2.47-1.58-4.93-3.18-7.42-4.73-.55-.34-.82-.76-.82-1.48.01-2.55-.02-5.1.01-7.65,0-.35.21-.85.46-1.02,4.3-2.93,8.61-5.82,13.03-8.79v9.53c-2.13,1.3-4.33,2.63-6.73,4.08,2.38,1.43,4.61,2.76,6.83,4.09.59.38,1.18.75,1.76,1.13-2.38,1.61-4.75,3.23-7.13,4.84h0Z"/>
      <path class="cls-1" d="M59.99,108.83c2.38-1.61,4.75-3.23,7.13-4.84,2.09-1.32,4.19-2.65,6.28-3.97h0c.02.06.03.1.05.14v9.42c-5.84,3.8-11.73,7.63-17.72,11.52v-9.14c1.41-1.04,2.83-2.09,4.26-3.13h0Z"/>
      <path class="cls-3" d="M73.4,100.02c-2.09,1.32-4.19,2.65-6.28,3.97-.59-.38-1.18-.75-1.76-1.13v-8.3c2.82,1.91,5.43,3.68,8.04,5.45Z"/>
      <path class="cls-4" d="M67.14,83.1c2.3,1.62,4.5,3.17,6.85,4.84-2.34,1.65-4.54,3.2-6.85,4.84,0,0,0-9.68,0-9.68Z"/>
      <path class="cls-4" d="M75.75,96.57c-1.86-1.3-3.64-2.55-5.54-3.88,1.9-1.31,3.66-2.53,5.54-3.83v7.71Z"/>
      <path class="cls-3" d="M73.46,100.16s-.03-.08-.05-.13c.02.02.05.05.06.08,0,0-.01.03-.02.05h0Z"/>
    </g>
    <g>
      <path class="cls-8" d="M84.99,108.83c-2.47-1.58-4.93-3.18-7.42-4.73-.55-.34-.82-.76-.82-1.48.01-2.55-.02-5.1.01-7.65,0-.35.21-.85.46-1.02,4.3-2.93,8.61-5.82,13.03-8.79v9.53c-2.13,1.3-4.33,2.63-6.73,4.08,2.38,1.43,4.61,2.76,6.83,4.09.59.38,1.18.75,1.76,1.13-2.38,1.61-4.75,3.23-7.13,4.84h0Z"/>
      <path class="cls-1" d="M84.99,108.83c2.38-1.61,4.75-3.23,7.13-4.84,2.09-1.32,4.19-2.65,6.28-3.97h0c.02.06.03.1.05.14v9.42c-5.84,3.8-11.73,7.63-17.72,11.52v-9.14c1.41-1.04,2.83-2.09,4.26-3.13h0Z"/>
      <path class="cls-3" d="M98.4,100.02c-2.09,1.32-4.19,2.65-6.28,3.97-.59-.38-1.18-.75-1.76-1.13v-8.3c2.82,1.91,5.43,3.68,8.04,5.45Z"/>
      <path class="cls-4" d="M92.14,83.1c2.3,1.62,4.5,3.17,6.85,4.84-2.34,1.65-4.54,3.2-6.85,4.84,0,0,0-9.68,0-9.68Z"/>
      <path class="cls-4" d="M100.75,96.57c-1.86-1.3-3.64-2.55-5.54-3.88,1.9-1.31,3.66-2.53,5.54-3.83v7.71Z"/>
      <path class="cls-3" d="M98.46,100.16s-.03-.08-.05-.13c.02.02.05.05.06.08,0,0-.01.03-.02.05h0Z"/>
    </g>
  </g>
</svg>