<?xml version="1.0" encoding="UTF-8"?>
<svg id="Layer_1" data-name="Layer 1" xmlns="http://www.w3.org/2000/svg" xmlns:xlink="http://www.w3.org/1999/xlink" viewBox="0 0 60 40"><rect x="0" y="0" width="60" height="40" fill="#ffffff"/>
  <defs>
    <style>
      .cls-1 {
        fill: #ccc;
      }

      .cls-1, .cls-2, .cls-3, .cls-4, .cls-5, .cls-6, .cls-7, .cls-8, .cls-9, .cls-10, .cls-11, .cls-12, .cls-13 {
        stroke-width: 0px;
      }

      .cls-2 {
        fill: url(#linear-gradient);
      }

      .cls-3 {
        fill: url(#linear-gradient-6);
      }

      .cls-4 {
        fill: url(#linear-gradient-5);
      }

      .cls-5 {
        fill: #666;
      }

      .cls-6 {
        fill: #999;
      }

      .cls-7 {
        fill: url(#linear-gradient-2);
      }

      .cls-8 {
        fill: url(#linear-gradient-7);
      }

      .cls-9 {
        fill: url(#linear-gradient-3);
      }

      .cls-10 {
        fill: url(#linear-gradient-9);
      }

      .cls-11 {
        fill: url(#linear-gradient-8);
      }

      .cls-14 {
        mask: url(#mask-1);
      }

      .cls-15 {
        mask: url(#mask);
      }

      .cls-12 {
        fill: url(#linear-gradient-10);
      }

      .cls-13 {
        fill: url(#linear-gradient-4);
      }
    </style>
    <linearGradient id="linear-gradient" x1="44.64" y1="-5.85" x2="15.65" y2="44.37" gradientTransform="translate(0 42) scale(1 -1)" gradientUnits="userSpaceOnUse">
      <stop offset="0" stop-color="#333"/>
      <stop offset="1" stop-color="#4d4d4d"/>
    </linearGradient>
    <linearGradient id="linear-gradient-2" x1="15.65" y1="11.89" x2="11.61" y2="18.9" gradientTransform="translate(0 42) scale(1 -1)" gradientUnits="userSpaceOnUse">
      <stop offset="0" stop-color="#999"/>
      <stop offset="1" stop-color="#b3b3b3"/>
    </linearGradient>
    <linearGradient id="linear-gradient-3" x1="15.65" y1="11.89" x2="11.61" y2="18.9" gradientTransform="translate(0 42) scale(1 -1)" gradientUnits="userSpaceOnUse">
      <stop offset="0" stop-color="#999"/>
      <stop offset="1" stop-color="#b3b3b3"/>
    </linearGradient>
    <mask id="mask" x="7.11" y="13.13" width="12.95" height="19.88" maskUnits="userSpaceOnUse">
      <g id="mask0">
        <path class="cls-9" d="M16.29,20.43l-8.8,8.8c-.5.5-.5,1.2,0,1.6l1.8,1.8c.5.5,1.2.5,1.6,0l8.8-8.8c.5-.5.5-1.2,0-1.6l-1.8-1.8c-.4-.4-1.2-.4-1.6,0Z"/>
      </g>
    </mask>
    <linearGradient id="linear-gradient-4" x1="17.4" y1="15.86" x2="9.87" y2="28.92" gradientTransform="translate(0 42) scale(1 -1)" gradientUnits="userSpaceOnUse">
      <stop offset="0" stop-color="#ccc"/>
      <stop offset="1" stop-color="#e6e6e6"/>
    </linearGradient>
    <linearGradient id="linear-gradient-5" x1="17.4" y1="15.86" x2="9.87" y2="28.92" gradientTransform="translate(0 42) scale(1 -1)" gradientUnits="userSpaceOnUse">
      <stop offset="0" stop-color="#ccc"/>
      <stop offset="1" stop-color="#e6e6e6"/>
    </linearGradient>
    <linearGradient id="linear-gradient-6" x1="33.15" y1="5.91" x2="26.85" y2="16.83" gradientTransform="translate(0 42) scale(1 -1)" gradientUnits="userSpaceOnUse">
      <stop offset="0" stop-color="#ccc"/>
      <stop offset="1" stop-color="#e6e6e6"/>
    </linearGradient>
    <linearGradient id="linear-gradient-7" x1="54.18" y1="11.62" x2="50.13" y2="18.63" gradientTransform="translate(98.52 4.94) rotate(-180) scale(1 -1)" xlink:href="#linear-gradient-2"/>
    <linearGradient id="linear-gradient-8" x1="54.18" y1="11.62" x2="50.13" y2="18.63" gradientTransform="translate(98.52 4.94) rotate(-180) scale(1 -1)" xlink:href="#linear-gradient-2"/>
    <mask id="mask-1" x="39.94" y="13.66" width="12.95" height="19.88" maskUnits="userSpaceOnUse">
      <g id="mask0-2" data-name="mask0">
        <path class="cls-11" d="M43.71,26.24l8.8-8.8c.5-.5.5-1.2,0-1.6l-1.8-1.8c-.5-.5-1.2-.5-1.6,0l-8.8,8.8c-.5.5-.5,1.2,0,1.6l1.8,1.8c.4.4,1.2.4,1.6,0Z"/>
      </g>
    </mask>
    <linearGradient id="linear-gradient-9" x1="55.93" y1="15.59" x2="48.39" y2="28.64" gradientTransform="translate(98.52 4.94) rotate(-180) scale(1 -1)" xlink:href="#linear-gradient-4"/>
    <linearGradient id="linear-gradient-10" x1="55.93" y1="15.59" x2="48.39" y2="28.64" gradientTransform="translate(98.52 4.94) rotate(-180) scale(1 -1)" xlink:href="#linear-gradient-4"/>
  </defs>
  <path class="cls-1" d="M0,7.78h20V0H2.5C1.12,0,0,1,0,2.22v5.56Z"/>
  <path class="cls-6" d="M40,0h-20v7.78h20V0Z"/>
  <path class="cls-5" d="M60,7.78h-20V0h17.5c1.37,0,2.5,1,2.5,2.22v5.56Z"/>
  <path class="cls-2" d="M57.5,40H2.5c-1.38,0-2.5-1-2.5-2.22V6.67h60v31.11c0,1.22-1.13,2.22-2.5,2.22Z"/>
  <g>
    <path class="cls-7" d="M16.29,20.43l-8.8,8.8c-.5.5-.5,1.2,0,1.6l1.8,1.8c.5.5,1.2.5,1.6,0l8.8-8.8c.5-.5.5-1.2,0-1.6l-1.8-1.8c-.4-.4-1.2-.4-1.6,0Z"/>
    <g class="cls-15">
      <path class="cls-13" d="M10.89,13.43l8.8,8.8c.5.5.5,1.2,0,1.6l-1.8,1.8c-.5.5-1.2.5-1.6,0l-8.8-8.8c-.5-.5-.5-1.2,0-1.6l1.8-1.8c.4-.4,1.2-.4,1.6,0Z"/>
    </g>
    <path class="cls-4" d="M10.89,13.43l8.8,8.8c.5.5.5,1.2,0,1.6l-1.8,1.8c-.5.5-1.2.5-1.6,0l-8.8-8.8c-.5-.5-.5-1.2,0-1.6l1.8-1.8c.4-.4,1.2-.4,1.6,0Z"/>
  </g>
  <path class="cls-3" d="M38,28.13h-16c-.6,0-1,.4-1,1v3c0,.6.4,1,1,1h16c.6,0,1-.4,1-1v-3c0-.6-.4-1-1-1Z"/>
  <g>
    <path class="cls-8" d="M43.71,26.24l8.8-8.8c.5-.5.5-1.2,0-1.6l-1.8-1.8c-.5-.5-1.2-.5-1.6,0l-8.8,8.8c-.5.5-.5,1.2,0,1.6l1.8,1.8c.4.4,1.2.4,1.6,0Z"/>
    <g class="cls-14">
      <path class="cls-10" d="M49.11,33.24l-8.8-8.8c-.5-.5-.5-1.2,0-1.6l1.8-1.8c.5-.5,1.2-.5,1.6,0l8.8,8.8c.5.5.5,1.2,0,1.6l-1.8,1.8c-.4.4-1.2.4-1.6,0Z"/>
    </g>
    <path class="cls-12" d="M49.11,33.24l-8.8-8.8c-.5-.5-.5-1.2,0-1.6l1.8-1.8c.5-.5,1.2-.5,1.6,0l8.8,8.8c.5.5.5,1.2,0,1.6l-1.8,1.8c-.4.4-1.2.4-1.6,0Z"/>
  </g>
</svg>