<?xml version="1.0" encoding="UTF-8"?>
<svg id="Layer_1" data-name="Layer 1" xmlns="http://www.w3.org/2000/svg" viewBox="0 0 245.76 245.76">
  <defs>
    <style>
      .cls-1 {
        fill: #9aa3ab;
      }

      .cls-1, .cls-2, .cls-3, .cls-4, .cls-5, .cls-6, .cls-7, .cls-8, .cls-9, .cls-10, .cls-11, .cls-12, .cls-13, .cls-14, .cls-15, .cls-16, .cls-17, .cls-18, .cls-19, .cls-20, .cls-21, .cls-22, .cls-23, .cls-24, .cls-25, .cls-26, .cls-27, .cls-28, .cls-29, .cls-30, .cls-31, .cls-32, .cls-33, .cls-34, .cls-35, .cls-36, .cls-37, .cls-38, .cls-39, .cls-40, .cls-41, .cls-42, .cls-43, .cls-44, .cls-45, .cls-46, .cls-47, .cls-48, .cls-49, .cls-50, .cls-51, .cls-52, .cls-53, .cls-54, .cls-55, .cls-56, .cls-57, .cls-58, .cls-59, .cls-60, .cls-61, .cls-62, .cls-63, .cls-64, .cls-65, .cls-66, .cls-67, .cls-68, .cls-69 {
        stroke-width: 0px;
      }

      .cls-2 {
        fill: #0e8b4a;
      }

      .cls-3 {
        fill: #979fa7;
      }

      .cls-4 {
        fill: #959da5;
      }

      .cls-5 {
        fill: #27b46e;
      }

      .cls-6 {
        fill: #1d9a59;
      }

      .cls-7 {
        fill: #727c85;
      }

      .cls-8 {
        fill: #30bf7b;
      }

      .cls-9 {
        fill: #e0e0e0;
      }

      .cls-10 {
        fill: #f2f2f2;
      }

      .cls-11 {
        fill: #949ca4;
      }

      .cls-12 {
        fill: #f4f5f6;
      }

      .cls-13 {
        fill: #25ac69;
      }

      .cls-14 {
        fill: #c865e9;
      }

      .cls-15 {
        fill: #d0d0d0;
      }

      .cls-16 {
        fill: #656d75;
      }

      .cls-17 {
        fill: #2ab772;
      }

      .cls-18 {
        fill: #199e59;
      }

      .cls-19 {
        fill: #ac4bd4;
      }

      .cls-20 {
        fill: #24b069;
      }

      .cls-21 {
        fill: #f5f5f5;
      }

      .cls-22 {
        fill: #9fa8b1;
      }

      .cls-23 {
        fill: #23a062;
      }

      .cls-24 {
        fill: #32c17f;
      }

      .cls-25 {
        fill: #555a60;
      }

      .cls-26 {
        fill: #dbdbdb;
      }

      .cls-27 {
        fill: #585e64;
      }

      .cls-28 {
        fill: #ebebeb;
      }

      .cls-29 {
        fill: #902fbc;
      }

      .cls-30 {
        fill: #1ba25c;
      }

      .cls-31 {
        fill: #9199a1;
      }

      .cls-32 {
        fill: #9da6ae;
      }

      .cls-33 {
        fill: #e3e3e3;
      }

      .cls-34 {
        fill: #4d5156;
      }

      .cls-35 {
        fill: #69727b;
      }

      .cls-36 {
        fill: #21a762;
      }

      .cls-37 {
        fill: #e6e6e6;
      }

      .cls-38 {
        fill: #1ea760;
      }

      .cls-39 {
        fill: #98a1a9;
      }

      .cls-40 {
        fill: #219e5e;
      }

      .cls-41 {
        fill: #51565b;
      }

      .cls-42 {
        fill: #d5d5d5;
      }

      .cls-43 {
        fill: #21ac64;
      }

      .cls-44 {
        fill: #169955;
      }

      .cls-45 {
        fill: #626970;
      }

      .cls-46 {
        fill: #939ba3;
      }

      .cls-47 {
        fill: #9199a0;
      }

      .cls-48 {
        fill: #25985f;
      }

      .cls-49 {
        fill: #9ca5ae;
      }

      .cls-50 {
        fill: #efefef;
      }

      .cls-51 {
        fill: #21a863;
      }

      .cls-52 {
        fill: #20a45f;
      }

      .cls-53 {
        fill: #969ea6;
      }

      .cls-54 {
        fill: #27b46d;
      }

      .cls-55 {
        fill: #139451;
      }

      .cls-56 {
        fill: #1fa45f;
      }

      .cls-57 {
        fill: #2dbb76;
      }

      .cls-58 {
        fill: #23a965;
      }

      .cls-59 {
        fill: #0b8646;
      }

      .cls-60 {
        fill: #5f666d;
      }

      .cls-61 {
        fill: #27ae6c;
      }

      .cls-62 {
        fill: #088242;
      }

      .cls-63 {
        fill: #5b6269;
      }

      .cls-64 {
        fill: #108f4d;
      }

      .cls-65 {
        fill: #fefefe;
      }

      .cls-66 {
        fill: #d8d8d8;
      }

      .cls-67 {
        fill: #1d9959;
      }

      .cls-68 {
        fill: #6d777f;
      }

      .cls-69 {
        fill: #8e969d;
      }
    </style>
  </defs>
  <path class="cls-65" d="M122.76,245.74c-40.55,0-81.11,0-121.66.02C.2,245.76,0,245.56,0,244.66.02,163.47.02,82.29,0,1.1,0,.2.2,0,1.1,0c81.19.02,162.37.02,243.56,0,.9,0,1.1.2,1.1,1.1-.02,81.19-.02,162.37,0,243.56,0,.9-.2,1.1-1.1,1.1-40.63-.03-81.27-.02-121.9-.02Z"/>
  <path class="cls-7" d="M143.38,191.08c.02.28.05.56.05.83q.02,2.47,2.55,2.47c7.47,0,14.94,0,22.41,0,4.04,0,5.72,1.7,5.73,5.78,0,3.08.01,6.15,0,9.23-.02,3.56-1.86,5.42-5.39,5.42-30.48,0-60.96,0-91.44,0-3.48,0-5.36-1.85-5.38-5.3-.02-3.28-.02-6.55,0-9.83.02-3.46,1.86-5.29,5.36-5.29,7.95-.01,15.9-.04,23.85.03,1.26.01,1.63-.37,1.48-1.55-.07-.59.02-1.19.03-1.79.46-.41,1.03-.39,1.59-.39,12.53,0,25.05,0,37.58,0,.56,0,1.13-.02,1.59.39Z"/>
  <path class="cls-22" d="M25.91,99.27c-.01-.44-.03-.88-.03-1.32,0-17.05.12-34.1-.06-51.15-.06-5.98,4.37-11.06,11.16-11.05,43.09.06,86.18.03,129.27.02.6,0,1.2,0,1.8-.01.03.31-.2.39-.42.48-.31.08-.63.12-.95.12-8.08,0-16.17.05-24.25-.02-8.65.05-17.29.06-25.94,0-10.62-.01-21.25.01-31.87-.02-1.1,0-1.85.37-2.55,1.22-2.41,2.92-4.82,5.85-7.33,8.69-.57.25-1.17.2-1.76.2-2.82,0-5.64.03-8.45-.01-3.91,0-7.82.06-11.72-.02-4.82.07-9.65.01-14.47.04-.55,0-1.12-.08-1.63.22-.53.48-.35,1.12-.35,1.7,0,12.5,0,25,0,37.5,0,.64.03,1.28-.04,1.91-.11.69-.72,1.02-1.13,1.49-2.68,3.14-5.31,6.31-7.99,9.45-.31.37-.61.9-1.26.56Z"/>
  <path class="cls-69" d="M220.09,114.61c.01,1.12.04,2.24.04,3.35,0,16.81-.06,33.63.04,50.44.03,5.12-3.55,9.41-7.95,10.33-.46.1-.95.1-1.42.14-.38.18-.79.09-1.18.09-13.98,0-27.96,0-41.94,0-.16,0-.32.01-.48,0-.3-.03-.67.12-.87-.24-.23-.42-.02-.78.24-1.1.69-.83,1.38-1.66,2.08-2.48,1.62-1.92,3.26-3.83,4.87-5.77.25-.31.5-.63.88-.8.69-.26,1.42-.18,2.14-.18,10.06,0,20.13,0,30.19,0,.32,0,.64,0,.96,0,1.95,0,1.96,0,1.96-2.02-.03-12.9.09-25.8.05-38.7,0-.6-.02-1.2.04-1.79.34-1.04,1.32-1.56,1.97-2.35,2.18-2.65,4.4-5.26,6.62-7.87.44-.52.79-1.37,1.78-1.06Z"/>
  <path class="cls-19" d="M212.25,36.2c4.11.02,8.22.05,12.34.07,2.24.01,2.85.78,3.04,3.03.21,2.6-.4,4.67-2.43,6.48-1.87,1.66-3.41,3.68-5.09,5.55-1.02,1.83-2.64,3.16-4.01,4.68-1.99,2.2-3.97,4.43-6.1,6.49-.12.23-.49.39-.34.67.11.19.43.04.66.04,2.79-.07,5.57-.02,8.36-.03.52,0,1.04.02,1.5.31,1.63.01,3.26.02,4.89.04,1.66.02,2.47.85,2.53,2.49.13,3.47-.13,4.48-4.2,4.29-1.07-.05-2.15.02-3.22.03-.39.24-.81.31-1.26.31-2.94,0-5.88.05-8.81-.03-2.31-.04-4.63,0-6.94-.02-2.05-.03-2.88-.98-3.07-3.01-.28-2.89.53-5.18,2.66-7.28,2.52-2.48,4.71-5.3,7.08-7.95,2.45-2.91,5.11-5.64,7.53-8.62-.51-.34-.96-.21-1.38-.22-4.15-.01-8.3,0-12.45,0-1.26,0-2.37-.3-3.13-1.41-.53-1.36-.39-2.76-.21-4.14.15-1.13,1.09-1.92,2.41-1.94,3.22-.03,6.45-.22,9.67.18Z"/>
  <path class="cls-31" d="M209.77,70.3c3.46,0,6.93.02,10.39.03-.01,3.71-.03,7.42-.03,11.13,0,10.57,0,21.14,0,31.72,0,.48-.03.96-.04,1.43-1.49.6-2.14,2.04-3.11,3.14-2.01,2.28-3.93,4.63-5.9,6.94-.27.32-.54.7-1.05.7-.48-.49-.33-1.12-.34-1.7-.01-6.85,0-13.71-.01-20.56,0-10.79.02-21.59,0-32.38-.01-.16.02-.31.11-.45Z"/>
  <path class="cls-1" d="M31.17,177.7c-3.15-1.76-5.17-4.44-5.22-8.03-.14-10.12-.04-20.25-.04-30.37,2.95-3.49,5.88-7,8.87-10.46.4-.46.87-1.28,1.48-.15.15.67.1,1.35.1,2.03,0,11.92,0,23.84.01,35.76,0,.72-.23,1.57.7,1.97.75.4.45.88.09,1.36-1.1,1.45-2.35,2.79-3.5,4.2-.94,1.15-2.06,2.18-2.48,3.68Z"/>
  <path class="cls-32" d="M35.98,128.27c-1.06.23-1.39,1.26-1.99,1.94-2.41,2.73-4.69,5.57-7.03,8.37-.28.33-.54.71-1.04.72-.01-6.41-.03-12.83-.03-19.24,0-6.93.02-13.86.03-20.79.74-.09.97-.74,1.37-1.21,2.65-3.15,5.31-6.29,7.97-9.44.19-.22.41-.38.71-.38.41.37.34.87.34,1.34.02,1.48.01,2.95,0,4.43-.04,10.73.08,21.47.05,32.2,0,.7.16,1.45-.39,2.06Z"/>
  <path class="cls-47" d="M174.3,168.82c-1.29,2.02-3.01,3.68-4.5,5.54-.99,1.24-2.07,2.41-3.11,3.61-.16.18-.33.37-.22.63.11.28.38.24.61.25.32,0,.64,0,.96,0,14.25,0,28.5.01,42.75.02-.56.32-1.17.18-1.76.18-21.31,0-42.62,0-63.93,0-1.54,0-1.51,0-1.55,1.55-.05,1.67.17,3.34-.14,5-.19-.11-.26-.29-.31-.49-.06-.33-.06-.66-.05-.99-.01-.33,0-.66,0-.99-.03-.34,0-.68,0-1.02-.05-.43,0-.86-.02-1.29-.22-1.33-.22-1.34-1.85-1.34-12.1,0-24.2,0-36.31,0-.71,0-1.44.1-2.12-.23-.14-.09-.2-.22-.17-.39,1.04-.67,2.19-.28,3.29-.35,7.78,0,15.56-.02,23.34.02,1.22,0,2.07-.32,2.86-1.31,2.15-2.72,4.49-5.29,6.68-7.99.2-.24.39-.51.7-.64,1.21-.34,2.44-.16,3.66-.17,1.94-.02,3.88-.06,5.82.02,7.94-.09,15.88-.02,23.81-.03.55,0,1.13-.06,1.56.42Z"/>
  <path class="cls-3" d="M102.63,178.86c0,.1.02.19.03.29.44.54.28,1.19.31,1.8,0,.4.02.81,0,1.21,0,.33.01.65,0,.98,0,.32,0,.65,0,.97,0,.32,0,.64,0,.96.01.26,0,.52,0,.78.02.34,0,.67,0,1.01,0,.42.01.85-.37,1.15-.32-2.46-.08-4.93-.15-7.4-.04-1.54-.01-1.54-1.56-1.54-13.7,0-27.4,0-41.09,0-.52,0-1.04-.04-1.55-.06-2.15-.05-4.3,0-6.45-.03-.41,0-.98.24-1.21-.21-.28-.54.19-.99.52-1.36,1.54-1.72,2.92-3.58,4.48-5.28,1.07-1.17,1.87-2.58,3.16-3.56,1.39-.27,2.79-.11,4.18-.12,3.8-.06,7.61-.06,11.41,0,3.63-.05,7.27-.05,10.9,0,.29.05.59.07.84.25.42.66-.12,1.04-.45,1.45-1.96,2.41-4.02,4.75-5.98,7.16-.24.3-.75.57-.58.96.2.47.78.26,1.19.26,6.86.01,13.72,0,20.57.02.62,0,1.29-.15,1.83.34Z"/>
  <path class="cls-53" d="M212.25,36.2c-2.9.01-5.8.04-8.7.03-2.05,0-3.37.74-3.14,3.12.09.94-.12,1.91.29,2.82-.89,1.64-2.04,3.06-3.57,4.17-.43.1-.87.1-1.31.1-8,0-16.01,0-24.01,0-.62,0-1.29.12-1.8-.41,2.75-3.03,5.5-6.05,8.25-9.08.43-.47.85-.94,1.28-1.41.39.42.9.23,1.36.23,9.44.01,18.89,0,28.33,0,1.03,0,2.06.05,3.04.42Z"/>
  <path class="cls-39" d="M58.51,168.82c-.58,1.28-1.65,2.2-2.51,3.27-1.48,1.86-3.1,3.61-4.64,5.42-.27.32-.68.8-.6,1.09.14.5.76.22,1.16.24,2.1.1,4.21-.16,6.3.15-2.78.02-5.57.06-8.35.06-4.46.01-8.92.04-13.37-.01-1.86-.02-3.72-.24-5.33-1.34-.34-1.74,1.21-2.45,1.99-3.55,1.32-1.85,3.09-3.35,4.25-5.33.43-.48,1.01-.42,1.56-.42,5.99-.01,11.98-.01,17.97,0,.55,0,1.13-.06,1.56.42Z"/>
  <path class="cls-29" d="M191.66,56.48c-.1,1.75-1.03,2.68-2.78,2.85-.4.04-.8.03-1.2.03-9.73.01-19.47.01-29.2,0-.28,0-.56.01-.84-.01-1.83-.09-2.82-1.03-2.87-2.84-.05-1.92-.06-3.83.02-5.74.04-1.05.75-1.73,1.38-2.44.65-.75,1.41-1.4,2.07-2.14,1.88-2.21,3.86-4.32,5.82-6.45.85-.93,1.67-1.9,2.54-2.82.36-.38.77-.69,1.23-.93.07-.08.14-.16.21-.23,3.93-4.29,7.85-8.58,11.78-12.87-.29-.33-.58-.16-.84-.16-6.98-.01-13.97-.01-20.95-.01-.36,0-.72.07-1.05-.14-1.25-.12-1.85-.92-1.91-2.06-.07-1.56-.05-3.12-.01-4.67.04-1.31.92-2.15,2.23-2.16,2.15-.01,4.31.02,6.46.04h18.7c2.27-.02,4.54-.05,6.8-.03,1.25.01,2.11.83,2.13,2.1.02,2.02-.03,4.05-.06,6.08,0,.55-.21,1.02-.57,1.41-2.75,2.98-5.51,5.96-8.26,8.94-.99,1.1-1.97,2.2-2.96,3.31-.02.68-.54,1.03-.94,1.47-2.91,3.17-5.85,6.31-8.7,9.55-.66.98-1.62,1.72-2.33,2.7.53.38,1.03.25,1.49.25,6.14.01,12.29,0,18.43,0,.6,0,1.2-.02,1.79.08,1.49.28,2.34,1.2,2.4,2.7.06,1.39.07,2.79-.01,4.19Z"/>
  <path class="cls-46" d="M220.16,63.48c-3.46,0-6.92.02-10.37.03-.21-.4.05-.79,0-1.18,3.11-3.38,6.23-6.76,9.35-10.13.29-.32.64-.58.96-.87.02,4.05.04,8.11.06,12.16Z"/>
  <path class="cls-16" d="M102.59,188c.04-.41.07-.83.11-1.24.45-.45,1.03-.38,1.58-.38,12.5-.01,25.01,0,37.51,0,.56,0,1.13-.02,1.59.39v1.44c-.46.41-1.03.39-1.59.39-12.53,0-25.05,0-37.58,0-.56,0-1.13.02-1.59-.39-.04-.06-.05-.13-.04-.2Z"/>
  <path class="cls-35" d="M102.62,188.2h40.75c0,.48,0,.96,0,1.44-.46.41-1.03.39-1.59.39-12.53,0-25.05,0-37.58,0-.56,0-1.13.02-1.59-.39v-1.44Z"/>
  <path class="cls-68" d="M102.62,189.64h40.75c0,.48,0,.96,0,1.44h-40.75v-1.44Z"/>
  <path class="cls-45" d="M143.38,186.77c-13.56,0-27.12,0-40.68,0,0-.32,0-.64,0-.96.37-.4.87-.35,1.34-.35,12.66,0,25.33,0,37.99,0,.48,0,.97,0,1.35.36,0,.32,0,.64,0,.96Z"/>
  <path class="cls-60" d="M143.38,185.81c-13.56,0-27.12,0-40.69,0,0-.24,0-.48,0-.72.45-.45,1.03-.38,1.58-.38,12.48-.01,24.97-.01,37.45,0,.55,0,1.13-.06,1.58.38.04.17.07.35.11.52.02.07,0,.14-.04.2Z"/>
  <path class="cls-43" d="M58.51,168.82c-7.03,0-14.06,0-21.1,0-1.1.12-1.44-.29-1.44-1.46.05-12.55.03-25.1.03-37.66,0-.48-.02-.96-.03-1.43,0-13.34,0-26.69-.01-40.03,0-8.45.02-16.91.03-25.36,0-5.18,0-10.37,0-15.55,0-.41-.21-.88.21-1.23.39.37.38.86.38,1.33,0,2.97.05,5.94-.02,8.9.04,2.32.05,4.64,0,6.96.05,2.16.05,4.32,0,6.48.05,2.16.05,4.32,0,6.48.05,2.4.05,4.79,0,7.19.05,2.47.05,4.95,0,7.42.04,2.23.05,4.46,0,6.68.04,2.21.04,4.42,0,6.63-.07,2.45-.05,4.91-.02,7.5.99-.4,1.51-1.09,2.13-1.6,8.62-7.13,17.59-13.79,26.96-19.91,7.75-5.07,15.74-9.74,23.93-14.09,10.52-5.59,21.34-10.49,32.41-14.88,10.62-4.21,21.5-7.68,32.49-10.76.19-.05.38-.11.58-.04,0,2,0,3.99.01,5.99.01,1.74.84,2.61,2.54,2.61,10.38,0,20.75,0,31.13,0,1.7,0,2.56-.89,2.58-2.59.02-1.24,0-2.47,0-3.71,0-1.93-.84-2.77-2.76-2.77-6.86,0-13.73,0-20.59,0-.4,0-.8,0-1.57,0,1.33-1.43,2.47-2.65,3.61-3.87,9.18,0,18.37,0,27.55-.01.44-.35.96-.35,1.48-.35,3.15,0,6.31-.02,9.46,0,1.61.01,1.94.3,1.89,1.89-.05,1.66.37,3.36-.38,4.96-2.9,3.33-5.79,6.67-8.71,9.97-.62.7-.94,1.43-.9,2.36.05,1.03,0,2.07.02,3.1.04,1.44.88,2.3,2.32,2.33,2.35.03,4.7.02,7.04.02.01.06.02.13.03.19.18.42.09.86.09,1.3,0,8.19,0,16.39,0,24.58-.31.84-1.11.68-1.72.77-2.69.36-5.37.75-8.05,1.17-10.93,1.71-21.69,4.19-32.31,7.28-2.18.64-4.36,1.3-6.52,2.01-.53.17-1.05.41-1.63.26-.44-.19-.3-.48-.12-.76.23-.37.58-.64.81-1,.78-.96,1.66-1.8,2.62-2.59,1.91-1.57,3.29-3.66,5.14-5.29,1.19-1.05,2.11-2.38,3.48-3.23.32-.1.64-.11.97-.12,4.4-.05,8.79-.01,13.18-.02,1.05,0,2.17.06,2.68-1.12.56-1.3.58-2.66-.09-3.94-.42-.8-1.26-.92-2.08-.93-1.96-.02-3.92,0-5.87-.01-.56,0-1.12.04-1.67-.11-.79-.37-.27-.78,0-1.1.61-.73,1.34-1.35,1.93-2.11.92-1.2,1.5-2.52,1.65-4.02.15-.63.67-.98,1.06-1.44,1.43-1.45,2.88-2.87,4.3-4.32,1.21-1.23,1.64-4.81.79-6.3-.39-.69-1.01-.99-1.78-1-1.2-.02-2.39-.03-3.59.03-3.54.02-7.08.05-10.62,0-1.12-.05-2.25.21-3.34-.22-.13-.1-.18-.22-.14-.38.97-.61,2.03-.25,3.06-.32.71,0,1.43.08,2.16.02-.98-.91-1.89-1.86-2.82-2.78-3.46-3.42-9.45-3.43-12.89.02-13.9,13.89-27.79,27.78-41.68,41.67-.25.25-.51.51-.76.76-1.11,1.08-1.33,1.09-2.43-.02-5.34-5.33-10.67-10.67-16.01-16.01-3.91-3.9-9.79-3.9-13.72.01-2.6,2.59-5.2,5.19-7.79,7.79-3.91,3.93-3.86,9.77,0,13.73,6.26,6.44,12.61,12.8,18.92,19.19,1.48,1.5,2.91,3.06,4.38,4.59.15.19.26.39.26.64-.1.59-.62.8-1.04,1.09-7.54,5.24-14.78,10.85-21.67,16.92-4.31,3.8-8.46,7.75-12.51,11.82-.56.57-.95,1.29-1.6,1.77-1.44.02-2.88.05-4.31.07Z"/>
  <path class="cls-49" d="M74.81,46.01c.2-1.15,1.19-1.77,1.84-2.59,1.83-2.3,3.81-4.47,5.67-6.75.4-.5.77-.7,1.38-.7,10.86.02,21.72.02,32.58.02.33.52-.11.81-.37,1.13-2.03,2.51-4.11,4.97-6.23,7.4-.54.62-.81,1.5-1.69,1.8-2.21.2-4.42.07-6.64.08-4.69.05-9.37.04-14.06.02-3.89,0-7.77.06-11.66-.02-.31-.06-.63-.1-.84-.39Z"/>
  <path class="cls-1" d="M108.38,46.01c.91-1.84,2.52-3.13,3.72-4.75,1.34-1.8,3.08-3.29,4.2-5.27,8.71,0,17.42,0,26.13,0,.39.46.22.91-.11,1.29-2.48,2.88-4.87,5.83-7.36,8.7-.13.15-.3.25-.5.31-1.06.19-2.13.1-3.19.1-4.91.06-9.81.05-14.72.02-2.17,0-4.34.04-6.5,0-.58,0-1.2.09-1.66-.42Z"/>
  <path class="cls-39" d="M134.75,46.01c.75-1.4,1.93-2.47,2.92-3.69,1.43-1.78,2.96-3.49,4.47-5.21.3-.34.28-.72.29-1.11,8.47,0,16.94,0,25.41,0-2.72,3-5.45,6.01-8.17,9.01-.37.41-.74.83-1.11,1.24-1.04.33-2.12.18-3.18.19-2.17,0-4.34.04-6.51-.01-4.1.04-8.21.03-12.31.02-.62,0-1.29.12-1.8-.42Z"/>
  <path class="cls-2" d="M74.81,46.01c.24.03.47.05.71.08.04.79-.63.95-1.13,1.21-7.03,3.67-13.95,7.55-20.72,11.68-5.41,3.3-10.76,6.7-15.97,10.32-.42.29-.81.84-1.47.48,0-2.16,0-4.31,0-6.47,3.53-2.46,7.14-4.81,10.79-7.08,5.31-3.31,10.71-6.47,16.19-9.49.42-.23.85-.43,1.28-.64,3.44-.03,6.88-.05,10.32-.08Z"/>
  <path class="cls-59" d="M64.5,46.09c-.66.92-1.74,1.24-2.67,1.75-5.76,3.17-11.38,6.56-16.93,10.08-2.52,1.6-4.99,3.28-7.49,4.91-.36.24-.69.57-1.18.48,0-2.32,0-4.63,0-6.95,4.36-3.01,8.91-5.72,13.42-8.48,1.02-.62,2.07-1.18,3.1-1.79,3.91,0,7.83,0,11.74,0Z"/>
  <path class="cls-62" d="M52.76,46.09c-.54,1.04-1.68,1.27-2.56,1.8-4.31,2.6-8.58,5.24-12.79,7.99-.36.23-.69.56-1.18.48,0-3.42,0-6.84-.01-10.26,5.51,0,11.03,0,16.54,0Z"/>
  <path class="cls-24" d="M174.3,168.82c-7.91-.01-15.83-.02-23.74-.03-.56,0-1.11-.02-1.67-.03-.23-.9.56-1.06,1.06-1.32,3.12-1.62,6.24-3.23,9.43-4.71,6.74-3.13,13.64-5.86,20.71-8.16,8.89-2.9,17.94-5.19,27.17-6.75q2.19-.37,2.19-2.63c0-6.27.02-12.53-.02-18.8-.04-2.49-.05-4.97,0-7.46-.04-2.38-.05-4.77,0-7.15-.04-2.41-.04-4.82,0-7.23.03-.43-.01-.87.18-1.28.07-.14.19-.2.34-.17.02,5.96.03,11.92.05,17.88,0,1.47.01,2.94.02,4.41,0,13.92-.01,27.85-.02,41.77q0,1.62-1.59,1.62c-11.37.01-22.74.02-34.11.03Z"/>
  <path class="cls-38" d="M148.88,46.09c3-.01,6-.02,9-.04.24,0,.48,0,.66.19-1.15,1.39-2.65,2.49-3.49,4.14-1.22.82-2.68.98-4.03,1.36-9.15,2.62-18.18,5.58-27.06,9.02-7.32,2.84-14.53,5.91-21.63,9.26-7.47,3.52-14.77,7.36-21.94,11.45-6.64,3.79-13.13,7.83-19.43,12.16-6.65,4.57-13.15,9.34-19.37,14.49-1.41,1.16-2.88,2.25-4.21,3.51-.26.25-.58.56-.93.44-.44-.14-.23-.62-.23-.95-.01-2.2,0-4.39,0-6.59,1.72-1.62,3.61-3.02,5.46-4.47,10.44-8.14,21.38-15.54,32.78-22.26,7.64-4.5,15.47-8.67,23.48-12.48,10.24-4.88,20.71-9.23,31.42-12.99,6.33-2.23,12.72-4.26,19.17-6.1.11-.03.22-.09.33-.15Z"/>
  <path class="cls-11" d="M210.01,52.51c0-1.76-.06-3.52,0-5.27.03-.93-.23-1.23-1.2-1.22-3.75.04-7.51,0-11.26-.01.85-1.44,2.02-2.62,3.14-3.84.81.73,1.73,1.01,2.84,1,4.43-.04,8.85-.02,13.28-.02.38,0,.77,0,1.56,0-2.94,3.29-5.65,6.32-8.37,9.36Z"/>
  <path class="cls-43" d="M209.79,62.33c.35.4.2.79,0,1.18-.27,0-.53,0-.99,0,.41-.49.7-.83.99-1.18Z"/>
  <path class="cls-8" d="M209.95,103.1h-.08s-.08,0-.08,0c-.26-.22-.34-.53-.36-.85-.06-1.58-.06-3.17,0-4.75.01-.32.12-.62.34-.87,0-8.71.02-17.42.03-26.13.28.25.2.59.2.9,0,10.41,0,20.82,0,31.23,0,.16-.03.32-.05.48Z"/>
  <path class="cls-8" d="M209.77,126.59c0,6.47-.03,12.93.03,19.4.01,1.29-.24,1.8-1.69,2.04-6.3,1.01-12.54,2.38-18.7,4.09-8.4,2.33-16.62,5.17-24.65,8.58-4.99,2.13-9.81,4.6-14.66,7.01-.48.24-1.05.43-1.22,1.05-3.2.02-6.39.04-9.59.06-.36.3-.8.35-1.24.35-8.09,0-16.19.05-24.28-.02-1.32-.04-2.64.16-3.95-.13-.78-.54-.23-.97.17-1.32.89-.81,1.86-1.5,2.83-2.21,7.62-5.63,15.57-10.74,23.89-15.26,9.2-5,18.73-9.27,28.58-12.85,11.24-4.09,22.73-7.24,34.49-9.44,2.94-.55,5.89-1.07,8.86-1.45.39-.05.79-.19,1.14.12Z"/>
  <path class="cls-4" d="M109.58,168.75c1.36.02,2.72.04,4.07.06.32.58-.18.86-.46,1.2-1.99,2.47-4.09,4.85-6.12,7.28-.41.49-.66,1.08-1.08,1.56-1.12,0-2.24,0-3.35,0-7.67,0-15.33,0-23-.01-.45,0-1.09.27-1.3-.23-.19-.45.35-.82.66-1.18,2.32-2.72,4.64-5.44,6.94-8.17.09-.11.1-.29.15-.44.35-.42.85-.41,1.32-.41,3.15,0,6.3-.06,9.46.02,3.78-.07,7.57-.02,11.36-.03.48,0,.96.01,1.36.35Z"/>
  <path class="cls-46" d="M105.98,178.85c-.02-1.22.98-1.86,1.62-2.66,1.89-2.32,3.88-4.56,5.82-6.84.12-.14.15-.35.22-.53,8.55,0,17.1,0,25.65,0-.48,1.26-1.53,2.1-2.34,3.11-1.65,2.08-3.43,4.06-5.11,6.12-.46.56-.93.83-1.7.83-8.06-.03-16.12-.02-24.17-.02Z"/>
  <path class="cls-34" d="M102.69,181.01c-.01-.62-.02-1.24-.04-1.86.48-.02.96-.06,1.43-.06,12.47,0,24.93,0,37.4,0q1.92,0,1.83,1.92c-.44.45-1.03.39-1.58.39-12.49.01-24.98.01-37.47,0-.55,0-1.13.06-1.58-.39Z"/>
  <path class="cls-41" d="M102.69,181.01c13.54,0,27.08,0,40.62,0,0,.4,0,.8,0,1.2-.44.45-1.03.39-1.58.39-12.49.01-24.98.01-37.46,0-.55,0-1.13.06-1.58-.39,0-.4,0-.8,0-1.2Z"/>
  <path class="cls-25" d="M102.69,182.21c13.54,0,27.08,0,40.62,0,0,.32,0,.64,0,.96-.44.45-1.03.39-1.58.39-12.49.01-24.97.01-37.46,0-.55,0-1.13.06-1.58-.39,0-.32,0-.64,0-.96Z"/>
  <path class="cls-27" d="M102.69,183.17c13.54,0,27.08,0,40.62,0,0,.32,0,.64,0,.96-.44.46-1.03.39-1.58.39-12.49.01-24.98.01-37.46,0-.55,0-1.13.06-1.58-.39,0-.32,0-.64,0-.96Z"/>
  <path class="cls-63" d="M102.69,184.12c13.54,0,27.08,0,40.61,0,0,.32,0,.64,0,.96-13.54,0-27.08,0-40.61,0,0-.32,0-.64,0-.96Z"/>
  <path class="cls-17" d="M96.87,168.75c-3.6.02-7.19.04-10.79.07-.24-.02-.47-.04-.71-.07-.17-.57.2-.9.56-1.22,2.33-2.12,4.71-4.18,7.13-6.19,5.71-4.74,11.66-9.16,17.82-13.31.2-.13.4-.27.64-.32,1.54.05,3.03.49,4.62.19,2.07-.39,3.89-1.12,5.38-2.62,2.75-2.77,5.52-5.53,8.29-8.29.42-.42.8-.89,1.32-1.21.11-.06.23-.11.35-.14.93-.18,1.64-.81,2.46-1.22,11.68-5.79,23.71-10.69,36.18-14.52,7.79-2.4,15.68-4.38,23.66-6,4.81-.97,9.66-1.76,14.52-2.43.52-.07,1.04-.15,1.48.25,0,2.4,0,4.79,0,7.19-.92.71-2.06.59-3.1.74-11,1.65-21.83,4.04-32.48,7.25-8.73,2.64-17.27,5.78-25.61,9.45-10.11,4.45-19.79,9.7-29.1,15.64-7.93,5.06-15.4,10.73-22.61,16.75Z"/>
  <path class="cls-20" d="M62.83,168.75c.03-.48.35-.84.63-1.13,2.35-2.38,4.61-4.86,7.15-7.04,1.48-1.27,2.8-2.7,4.27-3.99,3.72-3.28,7.48-6.51,11.38-9.58,4.24-3.34,8.57-6.56,13.05-9.58.09-.06.14-.19.2-.29.59-.14.85.35,1.17.66,1.51,1.48,2.99,2.97,4.48,4.46.22.27.49.51.4.91-1.87,1.49-3.91,2.74-5.84,4.15-5.42,3.95-10.68,8.09-15.71,12.52-3.29,2.9-6.48,5.91-9.67,8.9-3.84,0-7.67,0-11.51,0Z"/>
  <path class="cls-5" d="M74.34,168.75c.7-1.39,1.91-2.35,3.05-3.29,1.5-1.25,2.84-2.67,4.3-3.95,3.63-3.2,7.3-6.36,11.12-9.34,3.66-2.86,7.39-5.62,11.26-8.2.46-.31.96-.55,1.45-.83.68-.12.97.45,1.32.82,1.26,1.3,2.44,2.7,4.23,3.32.22.17.54.27.44.66-4.01,2.8-8.03,5.58-11.9,8.57-3.52,2.72-6.94,5.56-10.33,8.44-1.06.9-1.94,2.01-3.13,2.75-.39.25-.56.67-.76,1.05-3.68,0-7.36,0-11.04,0Z"/>
  <path class="cls-12" d="M169,67.89s0,.08,0,.13c-.02.03-.03.09-.06.1-2.17.61-2.37,2.26-2.22,4.14.12,1.47.75,2.15,2.27,2.2,1.16.04,2.31,0,3.47,0,1.08,0,2.17-.09,3.25.08.99.51,1.77,1.22,2.1,2.32-.03.63-.51.96-.89,1.35-2.2,2.23-4.45,4.42-6.63,6.67-.22.23-.45.45-.67.67-3.22,3.25-2.96,2.53-2.92,6.66,0,.44-.04.87-.27,1.26-.39.66-.92,1.2-1.46,1.73-6.43,6.43-12.86,12.85-19.28,19.29-5.02,4.83-9.67,10.04-14.66,14.91-4.1,4.08-8.18,8.18-12.27,12.27-2.72,2.71-5.34,2.7-8.08-.05-1.71-2.22-3.87-4-5.79-6.02-.39-.42-.83-.79-1.08-1.32-.15-.38-.41-.69-.72-.94-1.8-1.54-1.81-3.88-.72-5.89.4-.74.94-1.37,1.54-1.97,3.44-3.43,6.87-6.86,10.3-10.3,11.54-11.49,23.03-23.03,34.56-34.54,4.24-4.23,8.46-8.48,12.71-12.7,2.01-1.99,4.34-2.39,6.53-1.16.45.25.93.49,1.01,1.09Z"/>
  <path class="cls-30" d="M148.88,46.09c-.87.97-2.15.98-3.26,1.3-8.29,2.45-16.45,5.23-24.51,8.34-7.35,2.84-14.59,5.93-21.72,9.3-7.43,3.51-14.69,7.31-21.82,11.38-7.19,4.1-14.2,8.5-21.03,13.18-6.52,4.47-12.88,9.16-18.98,14.19-.39.32-.78.69-1.33.76,0-2.32,0-4.63,0-6.95,2.76-2.36,5.69-4.51,8.62-6.66,8.44-6.18,17.17-11.95,26.2-17.24,9.47-5.56,19.21-10.61,29.2-15.19,10.17-4.66,20.59-8.68,31.13-12.41,1.12-.03,2.24-.05,3.37-.08,4.71.02,9.42.05,14.13.07Z"/>
  <path class="cls-18" d="M131.38,46.09c-.35.55-.95.72-1.51.9-8.67,2.94-17.19,6.29-25.56,9.99-8.17,3.61-16.17,7.56-24.02,11.83-9.73,5.3-19.13,11.1-28.25,17.37-5.04,3.47-9.99,7.06-14.75,10.91-.31.25-.66.45-1.07.49,0-2.24,0-4.47,0-6.71,6.48-5.01,13.17-9.73,20.04-14.18,5.36-3.48,10.83-6.78,16.39-9.93,7.23-4.1,14.63-7.86,22.15-11.41,6.69-3.15,13.49-6.04,20.36-8.76.45-.18.91-.29,1.34-.51,4.95,0,9.91,0,14.86,0Z"/>
  <path class="cls-44" d="M116.52,46.09c-1.06,1.06-2.53,1.3-3.84,1.83-5.91,2.38-11.74,4.93-17.53,7.6-3.88,1.79-7.68,3.73-11.49,5.66-5.65,2.87-11.16,5.98-16.61,9.21-5.59,3.3-11.05,6.79-16.43,10.42-4.55,3.07-8.98,6.3-13.34,9.62-.33.25-.62.5-1.06.45,0-2.48,0-4.95,0-7.43,7.48-5.53,15.2-10.71,23.12-15.6,9.86-6.08,20.07-11.53,30.5-16.56,3.81-1.84,7.63-3.64,11.57-5.2,2.32-.03,4.64-.05,6.96-.08,2.71.03,5.43.05,8.14.08Z"/>
  <path class="cls-67" d="M169,67.89c-2.76-2.22-4.91-2.08-7.45.45-15.33,15.33-30.65,30.65-45.98,45.97-.36.36-.63.84-1.18.97-1.2-.48-1.77-1.72-2.81-2.38-.73-.71-1.34-1.54-2.11-2.21-.48-.5-.97-.99-1.46-1.47-.64-.62-1.21-1.32-1.95-1.84-.8-.64-1.3-1.57-2.1-2.21-.48-.5-.97-.99-1.46-1.47-.64-.62-1.21-1.32-1.95-1.84-.82-.61-1.25-1.61-2.14-2.15-.68-.63-1.19-1.41-1.9-2-1.28-1.18-2.32-2.62-3.83-3.56-2.01-.76-3.73-.34-5.23,1.19-2.54,2.58-5.1,5.15-7.69,7.68-1.6,1.56-1.88,3.33-1.08,5.34,1.05,1.48,2.49,2.59,3.71,3.91.55.58,1.13,1.15,1.7,1.71.71.73,1.43,1.44,2.15,2.15.7.73,1.43,1.44,2.14,2.15.48.5.96.98,1.46,1.46.63.65,1.27,1.28,1.91,1.91.7.73,1.43,1.44,2.14,2.15.48.5.97.99,1.47,1.47.68.7,1.4,1.35,1.97,2.15,2.26,1.9,4.22,4.09,6.24,6.22.19.2.39.4.46.68.33.38.66.76.99,1.15-.22,1.14-1.02,1.53-2.07,1.59-.7-.34-1.13-1-1.7-1.49-8.07-8.09-16.09-16.21-24.26-24.2-2.99-2.92-2.7-7.89-.02-10.53,2.93-2.88,5.72-5.91,8.46-8.96,2.4-2.67,8.23-2.54,10.65-.05,5.42,5.58,10.76,11.26,16.34,16.69.6.59,1.05,1.3,1.65,1.9.46.46.86.52,1.31.01.21-.24.45-.45.68-.68,14.15-14.15,28.3-28.3,42.44-42.45.71-.71,1.51-1.31,2.21-2.01,2.17-2.2,7.74-2.25,10.07.45.58.66,1.53,1.06,1.6,2.11l-3.38.04Z"/>
  <path class="cls-20" d="M209.77,96.63c0,2.16.01,4.32.02,6.47,0,.4,0,.8-.02,1.2-.85.78-1.96.63-2.95.76-10.21,1.41-20.29,3.45-30.25,6.12-9.88,2.65-19.56,5.9-29.04,9.74-.41.16-.81.35-1.26.31-.72-.57,0-.89.28-1.18,1.86-1.92,3.76-3.79,5.64-5.67.37-.37.73-.73,1.09-1.1,1.68-1.64,3.31-3.32,4.99-4.96.32-.31.57-.8,1.17-.66,1.81-.16,3.45-.94,5.14-1.46,8.65-2.69,17.43-4.85,26.31-6.62,5.35-1.07,10.77-1.81,16.16-2.68.9-.14,1.81-.18,2.72-.27Z"/>
  <path class="cls-56" d="M172.38,67.85c-1.3-1.51-2.59-3.13-4.64-3.59-2.33-.52-4.65-.53-6.68,1.12-1.34,1.09-2.53,2.31-3.74,3.52-13.89,13.89-27.79,27.78-41.66,41.69-.71.71-1.11.89-1.83.03-2.86-3.39-6.26-6.27-9.23-9.54-2.9-3.2-6.15-6.04-9.01-9.26-1.94-2.18-7.62-2.22-9.64-.01-3.05,3.36-6.28,6.56-9.36,9.9-2.26,2.45-2.05,6.76.33,9.14,7.85,7.85,15.7,15.7,23.55,23.55.34.34.64.71.95,1.07-.58.66-1.16,1.3-2.16,1.2-1.6-1.33-2.92-2.93-4.34-4.43-2.56-2.69-5.25-5.26-7.86-7.9-3.98-4.03-8.05-7.99-11.87-12.17-3.16-3.45-3.26-9.11.23-12.86,2.8-3.01,5.78-5.86,8.71-8.75,3.5-3.45,9.85-3.4,13.33.08,5.42,5.42,10.85,10.85,16.27,16.27q1.11,1.11,2.18.04c14.12-14.12,28.26-28.24,42.36-42.38,3.47-3.48,9.91-3.54,13.36.03.99,1.02,2.08,1.95,3.13,2.91-.07.11-.13.23-.2.34h-2.21Z"/>
  <path class="cls-55" d="M101.41,46.09c-1.05,1.07-2.5,1.38-3.79,1.94-6.61,2.9-13.09,6.1-19.47,9.45-11.36,5.95-22.32,12.58-32.88,19.88-2.55,1.76-5.03,3.62-7.56,5.41-.44.31-.84.77-1.48.68,0-2.4,0-4.79,0-7.19,1.29-1.21,2.81-2.11,4.25-3.1,8.43-5.77,17.04-11.27,25.96-16.27,6.82-3.83,13.82-7.32,20.83-10.79,4.71,0,9.43,0,14.14,0Z"/>
  <path class="cls-64" d="M87.27,46.09c-.26.5-.74.7-1.21.93-4.72,2.4-9.49,4.72-14.16,7.22-6.13,3.28-12.16,6.76-18.04,10.48-5.68,3.59-11.29,7.28-16.75,11.18-.25.18-.58.23-.88.35,0-2.16,0-4.31,0-6.47,2.36-1.17,4.36-2.9,6.56-4.31,6.83-4.39,13.72-8.67,20.81-12.64,3.65-2.04,7.33-4.03,11.03-5.97.36-.19.69-.4.89-.77,3.92,0,7.83,0,11.75,0Z"/>
  <path class="cls-14" d="M189.08,91.2c.01.48.02.96,0,1.44-.06,1.74-.88,2.55-2.59,2.55-4.7-.01-9.41-.02-14.11-.04-.32.03-.64.06-.96.08-.93.48-1.92.29-2.89.29-1.2-.23-2.15-.73-2.31-2.11.34-1.16.14-2.35.14-3.53.01-.97.29-1.77.99-2.44.97-.93,1.93-1.86,2.89-2.79,2.14-2.2,4.29-4.39,6.42-6.58.36-.37.7-.77,1.05-1.15.37-.88,1.03-1.47,1.73-1.85-1.07.01-2.3.27-3.49-.21-1.19-.02-2.38-.04-3.57-.07-1.23.01-2.46.06-3.69.03-1.4-.03-2.25-.91-2.3-2.33-.02-.52-.01-1.04-.01-1.55.01-2.02.61-2.69,2.62-2.92,1.13.03,2.25.06,3.38.1,3.68,0,7.35-.01,11.03-.01,1.11-.01,2.23-.06,3.35-.03,1.31.02,2.19.8,2.28,2.12.09,1.27.04,2.55,0,3.83-.02.56-.26,1.08-.67,1.49-1.65,1.62-3.29,3.24-4.94,4.86-.32.38-.65.77-.97,1.15-.16.57-.63.9-1.02,1.3-1.73,1.74-3.47,3.46-5.24,5.25.79.27,1.55-.11,2.19.33,2.63.02,5.26.03,7.89.05,1.93,0,2.77.83,2.8,2.74Z"/>
  <path class="cls-56" d="M168.3,95.23c1.04,0,2.08,0,3.12,0-1.56,1.59-3.25,3.09-4.66,4.8-1.86,2.25-4.24,3.96-6.12,6.18-1.25.46-2.44,1.16-3.86.92-.58-.43-.11-.77.15-1.05.72-.8,1.46-1.59,2.27-2.28,2.79-2.38,5.24-5.11,7.87-7.66.37-.36.73-.73,1.24-.91Z"/>
  <path class="cls-36" d="M156.56,106.94c1.44.24,2.65-.87,4.07-.72-.4.48-.8.96-1.2,1.44-1.64,1.6-3.29,3.21-4.93,4.81-.34.33-.71.63-1.06.94-1.52.92-3.1,1.68-4.92,1.81-.45-.45.01-.71.23-.98.35-.43.77-.8,1.15-1.2,1.82-1.77,3.58-3.59,5.4-5.37.34-.34.61-.88,1.25-.74Z"/>
  <path class="cls-51" d="M99.27,136.66c.72-.4,1.44-.8,2.16-1.2.57.38,1.05.86,1.44,1.44,1.53.96,2.8,2.23,4.03,3.53.22.23.44.48.32.84-.67.5-1.13,1.39-2.19,1.14-1.51-1.47-3.02-2.94-4.53-4.41-.31-.3-.65-.58-.98-.86-.08-.16-.16-.32-.24-.48Z"/>
  <path class="cls-52" d="M178.39,88.41h-2.45c2.09-2.21,4.31-4.54,6.52-6.88.15,2.07-1.04,3.54-2.25,4.99-.56.67-1.21,1.27-1.82,1.89Z"/>
  <path class="cls-57" d="M96.87,168.75c.23-1.07,1.27-1.41,1.96-1.99,4.6-3.86,9.38-7.48,14.31-10.91,6.97-4.84,14.25-9.18,21.75-13.17,6.41-3.41,13.01-6.41,19.72-9.17,5.64-2.32,11.38-4.35,17.2-6.19,8.64-2.73,17.43-4.91,26.35-6.52,3.86-.7,7.73-1.36,11.61-1.88,0,2.56,0,5.11,0,7.67-8.53,1.21-16.97,2.86-25.3,5.07-9.66,2.57-19.13,5.72-28.35,9.63-4.85,2.05-9.65,4.19-14.33,6.6-9.57,4.93-18.77,10.46-27.42,16.9-1.4,1.04-2.81,2.07-4.22,3.11-.3.22-.57.45-.58.85-4.24,0-8.47,0-12.71,0Z"/>
  <path class="cls-54" d="M146.01,121.08c3.73-1.39,7.45-2.77,11.18-4.16,5.26-1.96,10.62-3.63,16.02-5.16,6.45-1.84,12.97-3.43,19.56-4.69,4.67-.9,9.34-1.77,14.07-2.3.98-.11,1.95-.31,2.93-.47,0,2.48,0,4.95,0,7.43-3.49.22-6.91.89-10.35,1.46-5.71.95-11.37,2.18-16.99,3.59-10.86,2.72-21.47,6.21-31.84,10.42-5.61,2.28-11.08,4.88-16.53,7.52-.88.43-1.59,1.24-2.68,1.23-.13-.26,0-.49.17-.64,1.29-1.18,2.35-2.57,3.61-3.79,2.54-2.45,5.13-4.85,7.49-7.48.72-.94,1.62-1.72,2.46-2.56.24-.24.48-.55.91-.4Z"/>
  <path class="cls-61" d="M111.49,147.93c-.16-.16-.32-.32-.48-.48.6-.76,1.56-1.09,2.19-1.82.07-.04.15-.09.22-.08,3.27.19,5.54-1.53,7.59-3.82.95-1.05,1.86-2.19,3.14-2.9,1.66-.38,2.98-1.46,4.49-2.13.8-.35,1.5-1.09,2.5-.77-3.3,3.57-6.7,7.06-10.31,10.31-2.38,2.14-5.49,2.5-8.64,1.79-.23-.05-.47-.08-.7-.11Z"/>
  <path class="cls-13" d="M131.15,135.94c-1.74.56-3.28,1.51-4.86,2.38-.67.37-1.32.69-2.09.74-.12-.69.47-.96.83-1.34,3.22-3.41,6.73-6.52,10.05-9.84.75-.64,1.31-1.48,2.19-1.98,1.39-.4,2.6-1.2,3.95-1.69.56-.21,1.11-.5,1.68-.02-1.33,1.49-2.73,2.89-4.24,4.2-1.1.96-1.95,2.22-3.07,3.17-1.56,1.32-2.77,2.95-4.2,4.37-.08,0-.16,0-.24,0Z"/>
  <path class="cls-13" d="M113.17,145.77c-.39.98-1.32,1.28-2.16,1.68-1.36-.4-2.48-1.13-3.38-2.26-.61-.77-1.42-1.38-2.14-2.05-.16-.24-.32-.48-.48-.72.89-.09,1.3-1.05,2.16-1.2.78.16,1.25.73,1.71,1.31,1.22,1.04,2.19,2.42,3.9,2.76.21.04.47.15.38.48Z"/>
  <path class="cls-15" d="M104.02,134.34c-2.3-2.26-4.6-4.53-6.89-6.79.03-.3.22-.51.42-.7,4.73-4.72,9.41-9.48,14.19-14.15,1.04.7,1.85,1.64,2.65,2.59-.38.72-1.05,1.19-1.6,1.75-3.01,3.03-6.05,6.02-9.04,9.07-1.43,1.46-2.23,3.18-1.63,5.31.19.69.64,1.17,1.11,1.67.34.36.88.61.8,1.25Z"/>
  <path class="cls-6" d="M156.56,106.94c-1.8,1.76-3.61,3.53-5.42,5.29-.34.33-.7.63-1.06.94-.94.78-2.08,1.18-3.21,1.55-.46.15-1.09.47-1.35-.36,3.36-3.41,6.72-6.81,10.08-10.22,3.54-3.58,7.07-7.16,10.61-10.74.54.77.98,1.67,2.08,1.82-2.78,2.84-5.49,5.75-8.49,8.38-1.16,1.02-2.17,2.21-3.25,3.33Z"/>
  <path class="cls-23" d="M113.17,145.77c-1.93-.44-3.23-1.79-4.55-3.12.65-.6,1.17-1.44,2.26-1.23.42.37.81.77,1.26,1.09,1.87,1.35,4.31,1.14,5.99-.54,3.92-3.93,7.81-7.88,11.71-11.82.33-.34.7-.65,1.05-.97.96-.13,1.72-.72,2.59-1.08.57-.24,1.15-.57,1.76-.06-1.12,1.29-2.39,2.42-3.63,3.59-2.54,2.4-4.94,4.95-7.39,7.44-1.31,1.27-2.71,2.48-3.92,3.84-1.92,2.15-4.24,3.14-7.1,2.87Z"/>
  <path class="cls-40" d="M135.23,128.03c-1.21-.16-2.08.66-3.1,1.06-.39.15-.79.68-1.25.08,4.88-4.94,9.76-9.88,14.65-14.81.46.45.93.22,1.4.03,1.05-.41,2.1-.81,3.16-1.22-.56.64-1.12,1.28-1.68,1.92-.08.47-.46.73-.76,1.04-2.86,2.87-5.73,5.73-8.59,8.6-.57.57-1.21,1.02-1.92,1.39-.54.73-1.18,1.38-1.92,1.92Z"/>
  <path class="cls-40" d="M110.88,141.42c-.92.11-1.34,1.13-2.26,1.23-.27-.69-1.08-.84-1.44-1.44-1.02-1.25-2.19-2.35-3.46-3.35-.33-.26-.57-.64-.86-.96.98-.07,1.6-.69,2.15-1.42,2.06,1.88,4,3.87,5.86,5.94Z"/>
  <path class="cls-48" d="M175.95,74.86h3.93c-.84.8-1.51,1.43-2.17,2.06-.41-.83-1.26-1.3-1.76-2.06Z"/>
  <path class="cls-10" d="M82.21,112.55c-1.3-1.27-2.74-2.39-3.75-3.94,1.08-1.28,2.33-2.4,3.51-3.59,3.18-3.2,6.38-6.39,9.58-9.58.45-.45.88-.92,1.24-1.45,1.61.82,2.62,2.3,3.86,3.54.27.5-.06.84-.36,1.15-4.51,4.54-9.03,9.06-13.57,13.57-.14.14-.33.23-.51.3Z"/>
  <path class="cls-21" d="M92.79,93.99c.27.42-.04.65-.3.9-4.44,4.44-8.89,8.88-13.33,13.33-.2.2-.4.39-.71.39-1-1.98-.73-3.98.77-5.49,2.76-2.77,5.52-5.54,8.3-8.3,1.46-1.45,3.37-1.73,5.26-.83Z"/>
  <path class="cls-42" d="M111.73,112.7c0,.36-.23.58-.45.81-4.62,4.61-9.24,9.23-13.86,13.84-.08.08-.2.13-.3.2-.66-.68-1.32-1.37-1.98-2.05-.16-.69.42-.99.79-1.36,4.01-4.03,8.03-8.05,12.06-12.07.53-.53.98-1.15,1.59-1.6.86.6,1.45,1.46,2.13,2.23Z"/>
  <path class="cls-28" d="M85.99,116.33c-.72-.72-1.44-1.44-2.16-2.16.13-.45.49-.72.8-1.03,4.26-4.26,8.52-8.52,12.78-12.78.34-.34.65-.71,1.14-.85,1.02.42,1.34,1.54,2.16,2.16.13.48-.23.74-.5,1.01-4.39,4.4-8.78,8.8-13.19,13.19-.27.27-.55.61-1.02.46Z"/>
  <path class="cls-26" d="M106.22,107.19c.81.44,1.35,1.18,1.94,1.85.26.5-.05.84-.36,1.15-4.51,4.54-9.04,9.06-13.57,13.58-.14.14-.33.23-.51.3-.74-.74-1.47-1.47-2.21-2.21.13-.45.49-.72.8-1.03,4.26-4.26,8.52-8.52,12.78-12.78.34-.34.65-.71,1.14-.85Z"/>
  <path class="cls-37" d="M85.99,116.33c.22-.16.47-.3.66-.5,4.57-4.56,9.13-9.12,13.69-13.69.14-.14.24-.31.36-.47.81.44,1.35,1.17,1.95,1.84.26.5-.05.84-.36,1.15-4.51,4.54-9.04,9.07-13.58,13.58-.14.14-.33.23-.51.3-.74-.74-1.48-1.47-2.21-2.21Z"/>
  <path class="cls-9" d="M106.22,107.19c-1.67,1.71-3.33,3.42-5.01,5.12-2.89,2.91-5.8,5.81-8.7,8.7-.31.31-.66.56-1,.84-.62-.62-1.24-1.24-1.87-1.87-.16-.69.42-.99.79-1.36,4.01-4.03,8.03-8.05,12.06-12.07.53-.53.98-1.15,1.59-1.6.9.57,1.36,1.55,2.13,2.23Z"/>
  <path class="cls-50" d="M98.55,99.52c-1.87,1.9-3.72,3.82-5.6,5.71-2.7,2.71-5.4,5.41-8.11,8.11-.31.31-.66.56-1,.84-.54-.54-1.08-1.08-1.62-1.62.18-.47.58-.75.91-1.09,4.22-4.23,8.45-8.46,12.68-12.69.36-.36.83-.65.86-1.24.79.51,1.27,1.32,1.89,1.99Z"/>
  <path class="cls-33" d="M104.08,104.96c-.02.6-.49.89-.85,1.25-4.22,4.23-8.45,8.46-12.68,12.69-.33.34-.74.62-.92,1.09-.48-.48-.96-.96-1.44-1.44.18-.47.58-.75.92-1.09,4.22-4.23,8.46-8.46,12.68-12.69.36-.36.83-.65.85-1.24.48.48.96.96,1.44,1.44Z"/>
  <path class="cls-66" d="M93.71,124.06c.18-.47.58-.75.92-1.09,4.22-4.23,8.45-8.46,12.68-12.69.36-.36.83-.65.85-1.24.48.48.96.96,1.44,1.43-.02.6-.49.89-.85,1.25-4.22,4.23-8.45,8.46-12.68,12.69-.33.34-.74.62-.92,1.09-.48-.48-.96-.96-1.44-1.44Z"/>
  <path class="cls-58" d="M137.14,126.12c3.4-3.36,6.8-6.72,10.2-10.08.34-.33.71-.63,1.07-.95,1.77-.27,3.3-1.27,5.03-1.68-2.08,2.12-4.16,4.24-6.24,6.36-.41.42-.8.87-1.2,1.31-1.14.94-2.18,1.98-3.12,3.12-1.38-.08-2.45.77-3.65,1.23-.69.27-1.29.79-2.1.69Z"/>
</svg>